<?xml version="1.0" encoding="UTF-8"?>
<!DOCTYPE svg PUBLIC "-//W3C//DTD SVG 1.1//EN" "http://www.w3.org/Graphics/SVG/1.1/DTD/svg11.dtd">
<!-- Creator: CorelDRAW X5 -->
<svg xmlns="http://www.w3.org/2000/svg" xml:space="preserve" width="0.341866in" height="0.0833386in" style="shape-rendering:geometricPrecision; text-rendering:geometricPrecision; image-rendering:optimizeQuality; fill-rule:evenodd; clip-rule:evenodd"
viewBox="0 0 60 15"
 xmlns:xlink="http://www.w3.org/1999/xlink">
 <defs>
  <style type="text/css">
   <![CDATA[
    .fil1 {fill:#A0D9F6}
    .fil4 {fill:#FEFEFE}
    .fil3 {fill:#D5EAD8;fill-rule:nonzero}
    .fil2 {fill:#FEFEFE;fill-rule:nonzero}
    .fil0 {fill:url(#id0)}
   ]]>
  </style>
  <linearGradient id="id0" gradientUnits="userSpaceOnUse" x1="4.72909" y1="12.0606" x2="4.72909" y2="2.47061">
   <stop offset="0" style="stop-color:#56AAB7"/>
   <stop offset="0.6" style="stop-color:#95CAC7"/>
   <stop offset="1" style="stop-color:#D5EAD8"/>
  </linearGradient>
 </defs>
 <g id="Layer_x0020_1">
  <metadata id="CorelCorpID_0Corel-Layer"/>
  <polygon class="fil0" points="1,3 3,2 5,3 8,5 8,7 8,10 5,11 3,12 1,11 0,11 0,13 3,15 6,13 9,11 9,7 9,4 6,2 3,0 0,2 0,4 "/>
  <polygon class="fil1" points="4,4 4,5 5,6 6,6 6,7 6,8 5,9 4,10 4,10 5,10 6,9 6,7 6,6 5,5 "/>
  <path class="fil2" d="M13 13l-2 0 0 -11 2 0 0 11zm2 -11l2 0 4 8 0 0 0 -8 2 0 0 11 -2 0 -4 -8 0 0 0 8 -2 0 0 -11zm11 0l1 0 3 11 -2 0 -2 -8 -2 8 -2 0 3 -11zm-2 7l4 0 0 2 -4 0 0 -2zm14 -7l2 0 0 11 -2 0 0 -8 0 0 -2 6 -1 0 -2 -6 0 -1 0 8 -2 0 0 -11 2 0 2 7 2 -7zm5 11l-2 0 0 -11 2 0 0 11zm5 0c-1,0 -1,0 -2,0 -1,0 -1,-1 -1,-1 0,0 0,-1 0,-2l0 -4c0,-1 0,-1 0,-2 0,0 1,-1 1,-1 0,0 1,0 2,0 1,0 1,0 2,0 0,0 1,1 1,1 0,0 0,1 0,2l0 4c0,1 0,1 0,2 0,0 -1,1 -1,1 -1,0 -1,0 -2,0zm0 -2c0,0 1,0 1,0 0,0 0,0 1,-1 0,0 0,-1 0,-1l0 -4c0,0 0,-1 0,-1 0,0 0,0 -1,-1 0,0 -1,0 -1,0 0,0 -1,0 -1,0 0,0 0,0 -1,1 0,0 0,1 0,1l0 4c0,0 0,1 0,1 0,0 0,0 1,1 0,0 1,0 1,0zm6 -8l2 0 0 10 -2 0 0 -10zm-2 -1l7 0 0 2 -7 0 0 -2z"/>
  <path class="fil3" d="M13 13l-2 0 0 -5c0,0 1,0 2,0l0 5zm2 -4c0,0 1,1 2,1l0 3 -2 0 0 -4zm4 3c1,1 2,1 2,1l0 0 -2 0 -1 -2zm4 2c0,0 0,0 0,0l0 0 0 0zm6 0c1,0 1,-1 2,-1l0 1 -2 0 0 0z"/>
  <path class="fil3" d="M39 2c0,1 1,1 1,2l0 -2 -1 0zm3 3c1,0 1,0 2,0l0 -3 -2 0 0 3zm4 1c0,0 1,1 2,1l0 -2c0,0 0,-1 0,-1 0,0 0,0 1,-1 0,0 1,0 1,0 0,0 1,0 1,0 0,0 0,0 1,1 0,0 0,1 0,1l0 4c0,0 0,0 0,0 1,0 1,1 2,1 0,0 0,-1 0,-1l0 -4c0,-1 0,-1 0,-2 0,0 -1,-1 -1,-1 -1,0 -1,0 -2,0 -1,0 -1,0 -2,0 -1,0 -1,1 -1,1 0,0 0,1 0,2l0 1zm10 6c1,0 1,0 2,0l0 -8 -2 0 0 9zm-2 -10l7 0 0 2 -7 0 0 -2z"/>
  <polygon class="fil4" points="2,6 3,6 3,6 4,7 4,7 4,8 3,8 3,9 2,8 2,8 2,9 3,9 4,9 4,8 4,7 4,6 4,6 3,5 2,6 2,6 "/>
 </g>
</svg>
