<?xml version="1.0" encoding="UTF-8"?>
<!DOCTYPE svg PUBLIC "-//W3C//DTD SVG 1.1//EN" "http://www.w3.org/Graphics/SVG/1.1/DTD/svg11.dtd">
<!-- Creator: CorelDRAW X5 -->
<svg xmlns="http://www.w3.org/2000/svg" xml:space="preserve" width="0.0542402in" height="0.0833386in" style="shape-rendering:geometricPrecision; text-rendering:geometricPrecision; image-rendering:optimizeQuality; fill-rule:evenodd; clip-rule:evenodd"
viewBox="0 0 2 2"
 xmlns:xlink="http://www.w3.org/1999/xlink">
 <defs>
  <style type="text/css">
   <![CDATA[
    .fil1 {fill:#A0D9F6}
    .fil2 {fill:#FEFEFE}
    .fil0 {fill:url(#id0)}
   ]]>
  </style>
  <linearGradient id="id0" gradientUnits="userSpaceOnUse" x1="0.750313" y1="1.91352" x2="0.750313" y2="0.391984">
   <stop offset="0" style="stop-color:#56AAB7"/>
   <stop offset="0.6" style="stop-color:#95CAC7"/>
   <stop offset="1" style="stop-color:#D5EAD8"/>
  </linearGradient>
 </defs>
 <g id="Layer_x0020_1">
  <metadata id="CorelCorpID_0Corel-Layer"/>
  <polygon class="fil0" points="0,1 0,0 1,1 1,1 1,1 1,2 1,2 0,2 0,2 0,2 0,2 0,2 1,2 2,2 2,1 2,1 1,0 0,0 0,0 0,1 "/>
  <polygon class="fil1" points="1,1 1,1 1,1 1,1 1,1 1,1 1,1 1,2 1,2 1,2 1,1 1,1 1,1 1,1 "/>
  <polygon class="fil2" points="0,1 0,1 1,1 1,1 1,1 1,1 1,1 0,1 0,1 0,1 0,1 0,1 1,1 1,1 1,1 1,1 1,1 0,1 0,1 0,1 "/>
 </g>
</svg>
