<?xml version="1.0" encoding="UTF-8"?>
<!DOCTYPE svg PUBLIC "-//W3C//DTD SVG 1.1//EN" "http://www.w3.org/Graphics/SVG/1.1/DTD/svg11.dtd">
<!-- Creator: CorelDRAW X5 -->
<svg xmlns="http://www.w3.org/2000/svg" xml:space="preserve" width="6.60945in" height="1.61111in" style="shape-rendering:geometricPrecision; text-rendering:geometricPrecision; image-rendering:optimizeQuality; fill-rule:evenodd; clip-rule:evenodd"
viewBox="0 0 5309 1294"
 xmlns:xlink="http://www.w3.org/1999/xlink">
 <defs>
  <style type="text/css">
   <![CDATA[
    .fil1 {fill:#A0D9F6}
    .fil4 {fill:#FEFEFE}
    .fil3 {fill:#D5EAD8;fill-rule:nonzero}
    .fil2 {fill:#FEFEFE;fill-rule:nonzero}
    .fil0 {fill:url(#id0)}
   ]]>
  </style>
  <linearGradient id="id0" gradientUnits="userSpaceOnUse" x1="421.179" y1="1074.14" x2="421.179" y2="220.006">
   <stop offset="0" style="stop-color:#56AAB7"/>
   <stop offset="0.6" style="stop-color:#95CAC7"/>
   <stop offset="1" style="stop-color:#D5EAD8"/>
  </linearGradient>
 </defs>
 <g id="Layer_x0020_1">
  <metadata id="CorelCorpID_0Corel-Layer"/>
  <polygon class="fil0" points="71,299 275,183 478,299 682,415 682,647 682,879 478,995 275,1111 71,995 0,955 0,1138 275,1294 559,1132 842,971 842,647 842,324 559,162 275,0 0,157 0,339 "/>
  <polygon class="fil1" points="346,376 346,446 428,496 509,546 509,647 509,748 428,798 346,848 346,918 456,851 566,783 566,647 566,511 456,444 "/>
  <path class="fil2" d="M1171 1129l-153 0 0 -965 153 0 0 965zm169 -965l146 0 330 717 -18 19 0 -736 145 0 0 964 -147 0 -329 -696 17 -19 0 716 -144 0 0 -964zm1003 0l115 0 294 965 -160 0 -192 -709 -192 709 -161 0 295 -965zm-134 639l391 0 0 144 -391 0 0 -144zm1223 -639l158 0 0 965 -140 0 0 -719 9 43 -182 534 -105 0 -182 -521 11 -56 0 719 -142 0 0 -965 160 0 206 604 208 -604zm480 965l-153 0 0 -965 153 0 0 965zm453 10c-60,0 -112,-12 -156,-36 -45,-24 -79,-58 -103,-103 -24,-44 -36,-97 -36,-157l0 -394c0,-60 12,-113 36,-157 24,-44 58,-79 103,-103 44,-24 96,-36 156,-36 60,0 112,12 156,36 44,24 79,58 102,103 24,44 36,97 36,157l0 394c0,60 -12,113 -36,157 -24,44 -58,79 -102,103 -45,24 -97,36 -156,36zm0 -151c28,0 53,-6 74,-18 21,-12 37,-29 48,-51 11,-22 17,-48 17,-78l0 -391c0,-30 -6,-55 -17,-78 -11,-22 -27,-39 -48,-51 -21,-12 -46,-18 -74,-18 -28,0 -53,6 -74,18 -21,12 -37,29 -48,51 -11,22 -17,48 -17,78l0 391c0,30 6,56 17,78 11,22 27,39 48,51 21,12 46,18 74,18zm577 -744l152 0 0 885 -152 0 0 -885zm-217 -80l585 0 0 145 -585 0 0 -145z"/>
  <path class="fil3" d="M1171 1129l-153 0 0 -470c35,-6 85,-5 153,14l0 456zm169 -388c43,22 92,48 144,81l0 306 -144 0 0 -388zm389 246c74,46 145,81 214,107l0 35 -147 0 -67 -142zm321 139c5,1 10,2 15,3l-16 0 1 -3zm535 -29c59,-21 106,-45 139,-64l29 96 -160 0 -9 -33z"/>
  <path class="fil3" d="M3485 165c19,48 51,98 104,146l0 -146 -104 0zm272 256c67,31 108,34 153,41l0 -297 -153 0 0 256zm312 101c41,24 92,59 155,110l0 -180c0,-30 6,-55 17,-78 11,-22 27,-39 48,-51 21,-12 46,-18 74,-18 28,0 53,6 74,18 21,12 37,29 48,51 11,22 17,48 17,78l0 391c0,8 0,15 -1,22 48,34 95,61 142,83 9,-31 14,-66 14,-103l0 -394c0,-60 -12,-113 -36,-157 -24,-44 -58,-79 -102,-103 -45,-24 -97,-36 -156,-36 -60,0 -112,12 -156,36 -45,24 -79,58 -103,103 -24,44 -36,97 -36,157l0 71zm871 490c53,-1 104,-10 152,-25l0 -742 -152 0 0 767zm-217 -847l585 0 0 145 -585 0 0 -145z"/>
  <polygon class="fil4" points="177,550 234,518 291,550 348,582 348,647 348,712 291,744 234,777 177,744 157,733 157,784 234,828 313,782 392,737 392,647 392,557 313,512 234,467 157,510 157,561 "/>
 </g>
</svg>
